<svg width="140" height="60" viewBox="0 0 140 60" fill="none" xmlns="http://www.w3.org/2000/svg">
<path d="M16.2 29.216C16.032 29.216 15.768 29.204 15.408 29.18C15.048 29.156 14.664 29.132 14.256 29.108C13.848 29.084 13.464 29.06 13.104 29.036C12.744 29.012 12.48 29 12.312 29H8.82C8.652 29 8.388 29.012 8.028 29.036C7.668 29.06 7.284 29.084 6.876 29.108C6.492 29.132 6.12 29.156 5.76 29.18C5.4 29.204 5.136 29.216 4.968 29.216L4.896 29.072L5.004 27.704L5.184 27.56C5.544 27.56 5.964 27.548 6.444 27.524C6.948 27.5 7.308 27.392 7.524 27.2C7.716 27.032 7.908 26.816 8.1 26.552C8.292 26.288 8.424 25.82 8.496 25.148C8.52 24.98 8.532 24.788 8.532 24.572C8.556 24.332 8.568 24.044 8.568 23.708C8.592 23.372 8.604 22.964 8.604 22.484C8.604 22.004 8.604 21.404 8.604 20.684V14.096C8.604 12.776 8.592 11.6 8.568 10.568C8.544 9.536 8.52 8.768 8.496 8.264H8.1C7.188 8.264 6.432 8.276 5.832 8.3C5.232 8.3 4.752 8.324 4.392 8.372C4.032 8.396 3.756 8.432 3.564 8.48C3.396 8.528 3.276 8.588 3.204 8.66C2.94 8.78 2.724 8.972 2.556 9.236C2.388 9.5 2.28 9.812 2.232 10.172L2.088 10.316H0.54L0.792 5.492L0.936 5.168L1.152 5.06C1.344 5.132 1.764 5.204 2.412 5.276C3.06 5.324 3.768 5.36 4.536 5.384C5.304 5.408 6.036 5.432 6.732 5.456C7.452 5.456 7.968 5.456 8.28 5.456H12.816C13.128 5.456 13.632 5.456 14.328 5.456C15.048 5.432 15.792 5.408 16.56 5.384C17.328 5.36 18.036 5.324 18.684 5.276C19.332 5.204 19.752 5.132 19.944 5.06L20.16 5.168L20.304 5.492L20.592 10.316H19.008L18.864 10.172C18.816 9.812 18.708 9.5 18.54 9.236C18.372 8.972 18.156 8.78 17.892 8.66C17.82 8.564 17.688 8.492 17.496 8.444C17.328 8.372 17.064 8.324 16.704 8.3C16.344 8.276 15.864 8.264 15.264 8.264C14.688 8.264 13.944 8.264 13.032 8.264H12.636C12.612 8.84 12.588 9.608 12.564 10.568C12.564 11.528 12.564 12.692 12.564 14.06V19.964C12.564 20.828 12.564 21.536 12.564 22.088C12.564 22.616 12.564 23.06 12.564 23.42C12.588 23.78 12.6 24.092 12.6 24.356C12.624 24.596 12.648 24.86 12.672 25.148C12.72 25.844 12.852 26.324 13.068 26.588C13.284 26.852 13.488 27.056 13.68 27.2C13.776 27.296 13.908 27.368 14.076 27.416C14.268 27.464 14.472 27.5 14.688 27.524C14.904 27.548 15.12 27.56 15.336 27.56C15.576 27.56 15.792 27.56 15.984 27.56L16.164 27.704L16.272 29.072L16.2 29.216ZM35.8965 28.388C35.9925 28.076 36.0645 27.668 36.1125 27.164C36.1605 26.66 36.1965 26.216 36.2205 25.832C36.2685 24.92 36.3045 24.008 36.3285 23.096C36.3525 22.184 36.3645 21.416 36.3645 20.792C36.3645 20.24 36.3525 19.64 36.3285 18.992C36.3045 18.344 36.2205 17.78 36.0765 17.3C35.8845 16.532 35.4765 15.968 34.8525 15.608C34.2285 15.224 33.5325 15.032 32.7645 15.032C32.0685 15.032 31.4205 15.164 30.8205 15.428C30.2445 15.692 29.7405 16.016 29.3085 16.4C28.8765 16.784 28.5405 17.18 28.3005 17.588C28.0605 17.996 27.9405 18.344 27.9405 18.632C27.9405 19.856 27.9405 20.828 27.9405 21.548C27.9405 22.244 27.9405 22.82 27.9405 23.276C27.9645 23.732 27.9765 24.116 27.9765 24.428C28.0005 24.716 28.0365 25.064 28.0845 25.472C28.1325 25.976 28.2285 26.36 28.3725 26.624C28.5165 26.864 28.6845 27.068 28.8765 27.236C29.0685 27.428 29.2965 27.548 29.5605 27.596C29.8245 27.62 30.1365 27.632 30.4965 27.632L30.6765 27.812L30.7485 29L30.6765 29.144C30.5085 29.144 30.2565 29.132 29.9205 29.108C29.5845 29.084 29.2245 29.06 28.8405 29.036C28.4565 29.036 28.0965 29.024 27.7605 29C27.4245 29 27.1725 29 27.0045 29H25.0605C24.8925 29 24.6285 29 24.2685 29C23.9325 29.024 23.5725 29.036 23.1885 29.036C22.8285 29.06 22.4685 29.084 22.1085 29.108C21.7725 29.132 21.5205 29.144 21.3525 29.144L21.3165 29L21.3885 27.776L21.4965 27.632C21.8805 27.632 22.2165 27.62 22.5045 27.596C22.8165 27.548 23.0685 27.428 23.2605 27.236C23.4525 27.068 23.6085 26.852 23.7285 26.588C23.8485 26.324 23.9325 25.952 23.9805 25.472C24.0045 25.184 24.0285 24.896 24.0525 24.608C24.0765 24.32 24.0885 23.984 24.0885 23.6C24.1125 23.192 24.1245 22.724 24.1245 22.196C24.1245 21.644 24.1245 20.984 24.1245 20.216V12.296C24.1245 11.36 24.1245 10.568 24.1245 9.92C24.1245 9.272 24.1125 8.72 24.0885 8.264C24.0885 7.784 24.0765 7.364 24.0525 7.004C24.0525 6.62 24.0405 6.248 24.0165 5.888C23.9925 5.648 23.9085 5.432 23.7645 5.24C23.6445 5.024 23.5485 4.88 23.4765 4.808C23.2365 4.544 22.9125 4.376 22.5045 4.304C22.1205 4.208 21.7365 4.16 21.3525 4.16L21.2085 4.016V2.828L21.3525 2.684H23.3685C23.9205 2.684 24.5085 2.684 25.1325 2.684C25.7565 2.66 26.3085 2.612 26.7885 2.54L28.0485 2.36L28.2645 3.044C28.2165 3.164 28.1805 3.368 28.1565 3.656C28.1325 3.92 28.1085 4.22 28.0845 4.556C28.0605 4.868 28.0485 5.18 28.0485 5.492C28.0485 5.78 28.0485 6.008 28.0485 6.176C28.0485 6.8 28.0245 7.52 27.9765 8.336C27.9525 9.152 27.9405 10.1 27.9405 11.18C27.9405 12.188 27.9285 13.088 27.9045 13.88C27.9045 14.672 27.8805 15.248 27.8325 15.608L27.9405 15.68C28.2285 15.248 28.5645 14.816 28.9485 14.384C29.3565 13.928 29.8005 13.52 30.2805 13.16C30.7845 12.776 31.3245 12.476 31.9005 12.26C32.5005 12.02 33.1365 11.9 33.8085 11.9C34.5525 11.9 35.2845 11.996 36.0045 12.188C36.7245 12.38 37.3725 12.68 37.9485 13.088C38.5485 13.496 39.0405 14.012 39.4245 14.636C39.8085 15.26 40.0605 16.004 40.1805 16.868C40.2525 17.492 40.2885 18.212 40.2885 19.028C40.3125 19.82 40.3245 20.468 40.3245 20.972V25.328C40.3245 25.88 40.3965 26.312 40.5405 26.624C40.6845 26.912 40.8285 27.116 40.9725 27.236C41.1885 27.428 41.4645 27.548 41.8005 27.596C42.1365 27.62 42.4965 27.632 42.8805 27.632L42.9885 27.776L43.0605 29L42.9885 29.144C42.4845 29.096 41.9325 29.06 41.3325 29.036C40.7325 29.012 40.1325 29 39.5325 29C38.3085 29 37.1805 29.036 36.1485 29.108L35.8965 28.388ZM53.4988 11.9C54.9148 11.9 56.1748 12.152 57.2788 12.656C58.3828 13.136 59.3068 13.796 60.0508 14.636C60.8188 15.452 61.3948 16.4 61.7788 17.48C62.1868 18.56 62.3908 19.676 62.3908 20.828C62.3908 21.932 62.2108 23 61.8508 24.032C61.4908 25.064 60.9388 25.976 60.1948 26.768C59.4508 27.56 58.5268 28.196 57.4228 28.676C56.3188 29.156 55.0348 29.396 53.5708 29.396C52.0588 29.396 50.7388 29.144 49.6108 28.64C48.4828 28.136 47.5468 27.476 46.8028 26.66C46.0828 25.844 45.5428 24.92 45.1828 23.888C44.8228 22.832 44.6428 21.752 44.6428 20.648C44.6428 19.472 44.8468 18.356 45.2548 17.3C45.6628 16.244 46.2388 15.32 46.9828 14.528C47.7508 13.712 48.6748 13.076 49.7548 12.62C50.8588 12.14 52.1068 11.9 53.4988 11.9ZM53.5348 26.912C54.2788 26.912 54.9268 26.744 55.4788 26.408C56.0548 26.048 56.5348 25.592 56.9188 25.04C57.3028 24.464 57.5788 23.816 57.7468 23.096C57.9388 22.352 58.0348 21.596 58.0348 20.828C58.0348 20.084 57.9268 19.34 57.7108 18.596C57.5188 17.828 57.2188 17.144 56.8108 16.544C56.4268 15.944 55.9468 15.452 55.3708 15.068C54.7948 14.684 54.1348 14.492 53.3908 14.492C52.6228 14.492 51.9508 14.672 51.3748 15.032C50.8228 15.392 50.3668 15.86 50.0068 16.436C49.6468 17.012 49.3708 17.66 49.1788 18.38C49.0108 19.1 48.9268 19.832 48.9268 20.576C48.9268 21.344 49.0228 22.1 49.2148 22.844C49.4308 23.588 49.7308 24.272 50.1148 24.896C50.5228 25.496 51.0148 25.988 51.5908 26.372C52.1668 26.732 52.8148 26.912 53.5348 26.912ZM78.896 25.904C78.248 26.936 77.444 27.776 76.484 28.424C75.524 29.072 74.312 29.396 72.848 29.396C72.176 29.396 71.516 29.312 70.868 29.144C70.244 28.976 69.668 28.712 69.14 28.352C68.636 27.992 68.192 27.524 67.808 26.948C67.424 26.348 67.148 25.628 66.98 24.788C66.932 24.572 66.884 24.332 66.836 24.068C66.812 23.804 66.788 23.468 66.764 23.06C66.764 22.628 66.752 22.112 66.728 21.512C66.728 20.888 66.728 20.12 66.728 19.208V15.968C66.728 15.704 66.668 15.44 66.548 15.176C66.428 14.912 66.332 14.744 66.26 14.672C66.02 14.384 65.72 14.216 65.36 14.168C65 14.12 64.628 14.096 64.244 14.096L64.136 13.952V12.728L64.244 12.62H66.008C66.56 12.62 67.148 12.62 67.772 12.62C68.396 12.596 68.948 12.548 69.428 12.476L70.688 12.296L70.904 12.98C70.856 13.076 70.82 13.256 70.796 13.52C70.772 13.76 70.748 14.024 70.724 14.312C70.7 14.6 70.688 14.876 70.688 15.14C70.688 15.404 70.688 15.608 70.688 15.752C70.688 16.064 70.676 16.448 70.652 16.904C70.652 17.336 70.64 17.792 70.616 18.272C70.616 18.728 70.604 19.172 70.58 19.604C70.58 20.036 70.58 20.396 70.58 20.684C70.58 21.308 70.604 21.944 70.652 22.592C70.7 23.216 70.796 23.792 70.94 24.32C71.18 25.16 71.54 25.784 72.02 26.192C72.524 26.576 73.22 26.768 74.108 26.768C74.828 26.768 75.464 26.648 76.016 26.408C76.592 26.168 77.084 25.88 77.492 25.544C77.9 25.208 78.236 24.848 78.5 24.464C78.764 24.056 78.932 23.696 79.004 23.384V19.784C79.004 18.68 78.98 17.828 78.932 17.228C78.908 16.628 78.872 16.16 78.824 15.824C78.776 15.512 78.704 15.26 78.608 15.068C78.536 14.876 78.464 14.744 78.392 14.672C78.128 14.384 77.792 14.216 77.384 14.168C76.976 14.12 76.652 14.096 76.412 14.096L76.268 13.952V12.728L76.412 12.62H77.06C77.3 12.62 77.612 12.62 77.996 12.62C78.404 12.62 78.824 12.62 79.256 12.62C79.688 12.596 80.108 12.584 80.516 12.584C80.924 12.56 81.272 12.524 81.56 12.476L82.82 12.296L83.036 12.98C82.916 13.676 82.832 14.588 82.784 15.716C82.76 16.316 82.736 16.808 82.712 17.192C82.712 17.552 82.712 17.852 82.712 18.092C82.712 18.332 82.712 18.524 82.712 18.668C82.712 18.788 82.712 18.908 82.712 19.028V21.98C82.712 23.3 82.748 24.464 82.82 25.472C82.868 25.928 82.928 26.3 83 26.588C83.072 26.852 83.204 27.068 83.396 27.236C83.612 27.428 83.864 27.548 84.152 27.596C84.44 27.62 84.788 27.632 85.196 27.632L85.34 27.776L85.412 29L85.34 29.108C84.884 29.06 84.44 29.024 84.008 29C83.576 29 83.072 29 82.496 29C81.92 29 81.308 29 80.66 29C80.012 29.024 79.388 29.06 78.788 29.108L78.572 28.388C78.644 28.124 78.716 27.776 78.788 27.344C78.884 26.888 78.956 26.432 79.004 25.976L78.896 25.904ZM91.1 24.104C89.876 23.624 88.988 22.868 88.436 21.836C87.884 20.804 87.608 19.664 87.608 18.416C87.608 17.528 87.764 16.688 88.076 15.896C88.388 15.104 88.832 14.42 89.408 13.844C90.008 13.244 90.716 12.776 91.532 12.44C92.372 12.104 93.32 11.936 94.376 11.936C95 11.936 95.612 11.996 96.212 12.116C96.836 12.236 97.376 12.404 97.832 12.62C98.84 12.596 99.776 12.536 100.64 12.44C101.528 12.344 102.356 12.188 103.124 11.972L103.304 12.116L103.052 14.816L102.872 14.996L100.172 14.708L100.136 14.816C100.52 15.248 100.82 15.824 101.036 16.544C101.252 17.264 101.36 17.948 101.36 18.596C101.36 19.388 101.204 20.144 100.892 20.864C100.604 21.584 100.172 22.22 99.596 22.772C99.02 23.3 98.3 23.732 97.436 24.068C96.572 24.38 95.576 24.536 94.448 24.536C94.304 24.536 94.112 24.536 93.872 24.536C93.656 24.512 93.488 24.5 93.368 24.5C92.96 24.668 92.648 24.896 92.432 25.184C92.24 25.472 92.144 25.712 92.144 25.904C92.144 26.432 92.708 26.768 93.836 26.912L97.328 27.272C98.12 27.368 98.852 27.536 99.524 27.776C100.22 28.016 100.82 28.34 101.324 28.748C101.852 29.132 102.26 29.6 102.548 30.152C102.836 30.728 102.98 31.388 102.98 32.132C102.98 32.828 102.824 33.524 102.512 34.22C102.2 34.94 101.732 35.576 101.108 36.128C100.484 36.656 99.62 37.088 98.516 37.424C97.412 37.76 96.14 37.928 94.7 37.928C93.404 37.928 92.276 37.784 91.316 37.496C90.38 37.232 89.588 36.86 88.94 36.38C88.316 35.924 87.848 35.396 87.536 34.796C87.224 34.22 87.068 33.62 87.068 32.996C87.068 31.988 87.392 31.088 88.04 30.296C88.712 29.528 89.564 28.988 90.596 28.676L90.632 28.568C90.056 28.352 89.588 28.088 89.228 27.776C88.892 27.44 88.724 27.032 88.724 26.552C88.724 25.928 88.976 25.424 89.48 25.04C89.984 24.656 90.524 24.392 91.1 24.248V24.104ZM94.52 22.052C95 22.052 95.42 21.956 95.78 21.764C96.164 21.572 96.488 21.32 96.752 21.008C97.016 20.696 97.208 20.336 97.328 19.928C97.472 19.496 97.544 19.052 97.544 18.596C97.544 18.116 97.472 17.636 97.328 17.156C97.184 16.676 96.98 16.244 96.716 15.86C96.452 15.452 96.116 15.128 95.708 14.888C95.3 14.624 94.832 14.492 94.304 14.492C93.8 14.492 93.368 14.612 93.008 14.852C92.648 15.068 92.336 15.356 92.072 15.716C91.832 16.076 91.652 16.484 91.532 16.94C91.412 17.396 91.352 17.84 91.352 18.272C91.352 18.728 91.412 19.184 91.532 19.64C91.676 20.096 91.88 20.504 92.144 20.864C92.408 21.224 92.732 21.512 93.116 21.728C93.524 21.944 93.992 22.052 94.52 22.052ZM93.368 29.792C92.84 29.816 92.384 29.912 92 30.08C91.616 30.248 91.292 30.464 91.028 30.728C90.764 31.016 90.56 31.316 90.416 31.628C90.296 31.964 90.236 32.288 90.236 32.6C90.236 33.296 90.656 33.86 91.496 34.292C92.336 34.748 93.476 34.976 94.916 34.976C96.212 34.976 97.304 34.76 98.192 34.328C99.08 33.92 99.524 33.308 99.524 32.492C99.524 32.036 99.416 31.664 99.2 31.376C98.984 31.088 98.696 30.848 98.336 30.656C97.976 30.488 97.568 30.356 97.112 30.26C96.68 30.164 96.236 30.092 95.78 30.044L93.368 29.792ZM118.9 28.388C118.996 28.076 119.068 27.668 119.116 27.164C119.164 26.66 119.2 26.216 119.224 25.832C119.272 24.92 119.308 24.008 119.332 23.096C119.356 22.184 119.368 21.416 119.368 20.792C119.368 20.24 119.356 19.64 119.332 18.992C119.308 18.344 119.224 17.78 119.08 17.3C118.888 16.532 118.48 15.968 117.856 15.608C117.232 15.224 116.536 15.032 115.768 15.032C115.072 15.032 114.424 15.164 113.824 15.428C113.248 15.692 112.744 16.016 112.312 16.4C111.88 16.784 111.544 17.18 111.304 17.588C111.064 17.996 110.944 18.344 110.944 18.632C110.944 19.856 110.944 20.828 110.944 21.548C110.944 22.244 110.944 22.82 110.944 23.276C110.968 23.732 110.98 24.116 110.98 24.428C111.004 24.716 111.04 25.064 111.088 25.472C111.136 25.976 111.232 26.36 111.376 26.624C111.52 26.864 111.688 27.068 111.88 27.236C112.072 27.428 112.3 27.548 112.564 27.596C112.828 27.62 113.14 27.632 113.5 27.632L113.68 27.812L113.752 29L113.68 29.144C113.512 29.144 113.26 29.132 112.924 29.108C112.588 29.084 112.228 29.06 111.844 29.036C111.46 29.036 111.1 29.024 110.764 29C110.428 29 110.176 29 110.008 29H108.064C107.896 29 107.632 29 107.272 29C106.936 29.024 106.576 29.036 106.192 29.036C105.832 29.06 105.472 29.084 105.112 29.108C104.776 29.132 104.524 29.144 104.356 29.144L104.32 29L104.392 27.776L104.5 27.632C104.884 27.632 105.22 27.62 105.508 27.596C105.82 27.548 106.072 27.428 106.264 27.236C106.456 27.068 106.612 26.852 106.732 26.588C106.852 26.324 106.936 25.952 106.984 25.472C107.008 25.184 107.032 24.896 107.056 24.608C107.08 24.32 107.092 23.984 107.092 23.6C107.116 23.192 107.128 22.724 107.128 22.196C107.128 21.644 107.128 20.984 107.128 20.216V12.296C107.128 11.36 107.128 10.568 107.128 9.92C107.128 9.272 107.116 8.72 107.092 8.264C107.092 7.784 107.08 7.364 107.056 7.004C107.056 6.62 107.044 6.248 107.02 5.888C106.996 5.648 106.912 5.432 106.768 5.24C106.648 5.024 106.552 4.88 106.48 4.808C106.24 4.544 105.916 4.376 105.508 4.304C105.124 4.208 104.74 4.16 104.356 4.16L104.212 4.016V2.828L104.356 2.684H106.372C106.924 2.684 107.512 2.684 108.136 2.684C108.76 2.66 109.312 2.612 109.792 2.54L111.052 2.36L111.268 3.044C111.22 3.164 111.184 3.368 111.16 3.656C111.136 3.92 111.112 4.22 111.088 4.556C111.064 4.868 111.052 5.18 111.052 5.492C111.052 5.78 111.052 6.008 111.052 6.176C111.052 6.8 111.028 7.52 110.98 8.336C110.956 9.152 110.944 10.1 110.944 11.18C110.944 12.188 110.932 13.088 110.908 13.88C110.908 14.672 110.884 15.248 110.836 15.608L110.944 15.68C111.232 15.248 111.568 14.816 111.952 14.384C112.36 13.928 112.804 13.52 113.284 13.16C113.788 12.776 114.328 12.476 114.904 12.26C115.504 12.02 116.14 11.9 116.812 11.9C117.556 11.9 118.288 11.996 119.008 12.188C119.728 12.38 120.376 12.68 120.952 13.088C121.552 13.496 122.044 14.012 122.428 14.636C122.812 15.26 123.064 16.004 123.184 16.868C123.256 17.492 123.292 18.212 123.292 19.028C123.316 19.82 123.328 20.468 123.328 20.972V25.328C123.328 25.88 123.4 26.312 123.544 26.624C123.688 26.912 123.832 27.116 123.976 27.236C124.192 27.428 124.468 27.548 124.804 27.596C125.14 27.62 125.5 27.632 125.884 27.632L125.992 27.776L126.064 29L125.992 29.144C125.488 29.096 124.936 29.06 124.336 29.036C123.736 29.012 123.136 29 122.536 29C121.312 29 120.184 29.036 119.152 29.108L118.9 28.388ZM137.475 14.6H133.515C133.515 15.992 133.503 17.288 133.479 18.488C133.479 19.664 133.479 20.696 133.479 21.584C133.479 22.448 133.467 23.156 133.443 23.708C133.443 24.26 133.443 24.596 133.443 24.716C133.443 25.652 133.623 26.276 133.983 26.588C134.343 26.9 134.763 27.056 135.243 27.056C135.603 27.056 136.011 27.02 136.467 26.948C136.923 26.876 137.307 26.78 137.619 26.66L137.835 27.056L137.475 28.244C136.827 28.604 136.155 28.88 135.459 29.072C134.787 29.288 134.163 29.396 133.587 29.396C132.123 29.396 131.079 29.06 130.455 28.388C129.831 27.716 129.519 26.852 129.519 25.796C129.519 25.58 129.531 25.16 129.555 24.536C129.579 23.888 129.603 23.084 129.627 22.124C129.651 21.14 129.675 20.012 129.699 18.74C129.723 17.468 129.735 16.088 129.735 14.6H127.863L127.719 14.42V12.836L127.863 12.692L129.735 12.188C129.735 11.42 129.711 10.64 129.663 9.848C129.639 9.032 129.603 8.24 129.555 7.472L129.807 7.256L130.311 7.22C130.479 7.22 130.707 7.208 130.995 7.184C131.307 7.16 131.631 7.136 131.967 7.112C132.303 7.064 132.615 7.016 132.903 6.968C133.215 6.92 133.443 6.872 133.587 6.824L133.911 6.968C133.791 7.568 133.695 8.372 133.623 9.38C133.551 10.364 133.515 11.3 133.515 12.188L137.475 11.972L137.655 12.116V14.42L137.475 14.6ZM4.5 37.308C4.452 36.9 4.356 36.504 4.212 36.12C4.092 35.712 3.9 35.412 3.636 35.22C3.444 35.1 3.204 35.016 2.916 34.968C2.628 34.92 2.232 34.896 1.728 34.896L1.548 34.752L1.44 33.384L1.512 33.24C1.728 33.264 2.016 33.288 2.376 33.312C2.76 33.336 3.144 33.36 3.528 33.384C3.936 33.408 4.32 33.432 4.68 33.456C5.04 33.456 5.328 33.456 5.544 33.456H7.668C7.884 33.456 8.16 33.456 8.496 33.456C8.856 33.432 9.228 33.408 9.612 33.384C10.02 33.36 10.404 33.336 10.764 33.312C11.148 33.288 11.46 33.264 11.7 33.24L11.772 33.384L11.664 34.752L11.52 34.896C10.92 34.896 10.476 34.932 10.188 35.004C9.924 35.052 9.708 35.136 9.54 35.256C9.036 35.592 8.748 36.276 8.676 37.308C8.652 37.548 8.628 37.8 8.604 38.064C8.604 38.304 8.604 38.628 8.604 39.036C8.604 39.42 8.604 39.912 8.604 40.512C8.604 41.112 8.604 41.868 8.604 42.78V47.604C8.604 48.54 8.604 49.308 8.604 49.908C8.604 50.484 8.604 50.976 8.604 51.384C8.628 51.768 8.64 52.116 8.64 52.428C8.664 52.716 8.7 53.064 8.748 53.472C8.772 53.952 9.048 54.192 9.576 54.192H12.924C13.716 54.192 14.34 54.18 14.796 54.156C15.276 54.108 15.648 54.012 15.912 53.868C16.176 53.7 16.38 53.472 16.524 53.184C16.668 52.896 16.8 52.5 16.92 51.996L17.028 51.852H18.684L18.036 56.784L17.748 57.144C17.556 57.12 17.256 57.096 16.848 57.072C16.44 57.072 16.008 57.06 15.552 57.036C15.096 57.036 14.64 57.024 14.184 57C13.752 57 13.416 57 13.176 57H5.544C5.376 57 5.1 57 4.716 57C4.356 57.024 3.972 57.048 3.564 57.072C3.156 57.096 2.76 57.12 2.376 57.144C1.992 57.168 1.704 57.192 1.512 57.216L1.44 57.072L1.548 55.704L1.728 55.56C2.64 55.56 3.264 55.428 3.6 55.164C3.792 54.996 3.972 54.732 4.14 54.372C4.332 54.012 4.452 53.592 4.5 53.112C4.524 52.872 4.536 52.548 4.536 52.14C4.56 51.708 4.572 51.264 4.572 50.808C4.596 50.352 4.608 49.932 4.608 49.548C4.608 49.14 4.608 48.852 4.608 48.684V42.816C4.608 41.496 4.596 40.344 4.572 39.36C4.572 38.352 4.548 37.668 4.5 37.308ZM30.2867 56.748C30.3587 56.532 30.4067 56.22 30.4307 55.812C30.4787 55.404 30.5387 55.032 30.6107 54.696L30.5747 54.588C30.2867 54.948 29.9507 55.296 29.5667 55.632C29.2067 55.968 28.7987 56.268 28.3427 56.532C27.8867 56.796 27.3947 57 26.8667 57.144C26.3627 57.312 25.8227 57.396 25.2467 57.396C24.3827 57.396 23.6267 57.264 22.9787 57C22.3307 56.736 21.7907 56.388 21.3587 55.956C20.9267 55.524 20.5907 55.02 20.3507 54.444C20.1347 53.868 20.0267 53.268 20.0267 52.644C20.0267 51.708 20.2307 50.892 20.6387 50.196C21.0467 49.5 21.5867 48.936 22.2587 48.504C22.8827 48.096 23.6147 47.784 24.4547 47.568C25.2947 47.328 26.1107 47.148 26.9027 47.028C27.6947 46.908 28.4147 46.836 29.0627 46.812C29.7107 46.764 30.1427 46.74 30.3587 46.74H30.8627C30.8387 45.996 30.7907 45.42 30.7187 45.012C30.6467 44.58 30.5507 44.22 30.4307 43.932C30.2147 43.452 29.8547 43.116 29.3507 42.924C28.8707 42.708 28.2947 42.6 27.6227 42.6C27.2147 42.6 26.7707 42.636 26.2907 42.708C25.8347 42.756 25.4027 42.864 24.9947 43.032C24.5867 43.2 24.2267 43.44 23.9147 43.752C23.6267 44.04 23.4587 44.424 23.4107 44.904L23.2667 45.012H22.1147L21.7907 41.628L21.8987 41.412C22.0427 41.268 22.3187 41.112 22.7267 40.944C23.1347 40.776 23.6267 40.62 24.2027 40.476C24.7787 40.308 25.4027 40.176 26.0747 40.08C26.7707 39.96 27.4667 39.9 28.1627 39.9C29.0987 39.9 29.9747 40.02 30.7907 40.26C31.6067 40.476 32.3027 40.812 32.8787 41.268C33.4787 41.724 33.9467 42.3 34.2827 42.996C34.6187 43.668 34.7867 44.46 34.7867 45.372C34.7867 46.356 34.7747 47.196 34.7507 47.892C34.7507 48.588 34.7387 49.236 34.7147 49.836C34.6907 50.436 34.6667 51.024 34.6427 51.6C34.6427 52.152 34.6427 52.776 34.6427 53.472C34.6907 54.024 34.7507 54.42 34.8227 54.66C34.8947 54.9 35.0147 55.092 35.1827 55.236C35.3747 55.428 35.6627 55.548 36.0467 55.596C36.4547 55.62 36.8267 55.632 37.1627 55.632L37.2707 55.776L37.3427 57L37.3067 57.144C36.8987 57.096 36.4307 57.06 35.9027 57.036C35.3747 57.012 34.8827 57 34.4267 57C33.7547 57 33.0827 57 32.4107 57C31.7387 57.024 31.1027 57.06 30.5027 57.108L30.2867 56.748ZM30.2867 52.86C30.3587 52.74 30.4307 52.596 30.5027 52.428C30.5987 52.26 30.6587 52.056 30.6827 51.816L30.8627 48.756H30.5387C29.7947 48.756 29.0627 48.804 28.3427 48.9C27.6227 48.996 26.9747 49.176 26.3987 49.44C25.8227 49.704 25.3547 50.076 24.9947 50.556C24.6347 51.036 24.4547 51.66 24.4547 52.428C24.4547 53.076 24.6107 53.592 24.9227 53.976C25.2587 54.36 25.7027 54.552 26.2547 54.552C26.6627 54.552 27.0707 54.504 27.4787 54.408C27.9107 54.288 28.3067 54.144 28.6667 53.976C29.0267 53.808 29.3507 53.628 29.6387 53.436C29.9267 53.22 30.1427 53.028 30.2867 52.86ZM45.3563 43.572C45.9083 42.516 46.6643 41.64 47.6243 40.944C48.5843 40.248 49.7123 39.9 51.0083 39.9C51.7523 39.9 52.4843 39.996 53.2043 40.188C53.9243 40.38 54.5723 40.68 55.1483 41.088C55.7483 41.496 56.2403 42.024 56.6243 42.672C57.0323 43.296 57.2963 44.04 57.4163 44.904C57.4883 45.528 57.5243 46.188 57.5243 46.884C57.5483 47.58 57.5603 48.276 57.5603 48.972C57.5843 49.788 57.5963 50.544 57.5963 51.24C57.5963 51.912 57.5963 52.656 57.5963 53.472C57.5963 54.024 57.6563 54.444 57.7763 54.732C57.9203 54.996 58.0883 55.176 58.2803 55.272C58.5443 55.416 58.8203 55.512 59.1083 55.56C59.4203 55.608 59.7683 55.632 60.1523 55.632L60.2603 55.776L60.3323 57L60.2603 57.144C59.7563 57.096 59.1923 57.06 58.5683 57.036C57.9683 57.012 57.3803 57 56.8043 57C56.2283 57 55.6523 57 55.0763 57C54.5003 57.024 53.9603 57.06 53.4563 57.108L53.2043 56.388C53.2763 56.076 53.3363 55.608 53.3843 54.984C53.4563 54.36 53.5043 53.856 53.5283 53.472C53.5763 52.56 53.6123 51.708 53.6363 50.916C53.6603 50.124 53.6723 49.416 53.6723 48.792C53.6723 48.24 53.6603 47.64 53.6363 46.992C53.6123 46.344 53.5283 45.78 53.3843 45.3C53.1923 44.532 52.7963 43.968 52.1963 43.608C51.6203 43.224 50.9483 43.032 50.1803 43.032C49.4603 43.032 48.8003 43.164 48.2003 43.428C47.6003 43.692 47.0843 44.016 46.6523 44.4C46.2443 44.76 45.9203 45.144 45.6803 45.552C45.4403 45.96 45.3203 46.32 45.3203 46.632V50.34C45.3203 50.82 45.3203 51.216 45.3203 51.528C45.3203 51.816 45.3203 52.068 45.3203 52.284C45.3443 52.5 45.3563 52.704 45.3563 52.896C45.3803 53.064 45.4043 53.256 45.4283 53.472C45.4763 53.976 45.5723 54.36 45.7163 54.624C45.8843 54.864 46.0643 55.068 46.2563 55.236C46.4483 55.428 46.6763 55.548 46.9403 55.596C47.2043 55.62 47.5163 55.632 47.8763 55.632L48.0563 55.812L48.1283 57L48.0563 57.144C47.8883 57.144 47.6363 57.132 47.3003 57.108C46.9643 57.084 46.6043 57.06 46.2203 57.036C45.8363 57.036 45.4763 57.024 45.1403 57C44.8043 57 44.5523 57 44.3843 57H42.4043C42.2363 57 41.9723 57 41.6123 57C41.2763 57.024 40.9163 57.036 40.5323 57.036C40.1723 57.06 39.8123 57.084 39.4523 57.108C39.1163 57.132 38.8643 57.144 38.6963 57.144L38.6603 57L38.7323 55.776L38.8403 55.632C39.2243 55.632 39.5603 55.62 39.8483 55.596C40.1603 55.548 40.4123 55.428 40.6043 55.236C40.7723 55.068 40.9283 54.852 41.0723 54.588C41.2163 54.324 41.3123 53.952 41.3603 53.472C41.3843 53.304 41.3963 53.136 41.3963 52.968C41.4203 52.8 41.4323 52.62 41.4323 52.428C41.4563 52.236 41.4683 52.008 41.4683 51.744C41.4683 51.48 41.4683 51.156 41.4683 50.772V47.064C41.4683 46.608 41.4683 46.224 41.4683 45.912C41.4683 45.6 41.4563 45.324 41.4323 45.084C41.4323 44.844 41.4203 44.628 41.3963 44.436C41.3963 44.244 41.3843 44.04 41.3603 43.824C41.3123 43.584 41.2403 43.356 41.1443 43.14C41.0483 42.924 40.9643 42.78 40.8923 42.708C40.6523 42.396 40.3523 42.216 39.9923 42.168C39.6323 42.12 39.2603 42.096 38.8763 42.096L38.7323 41.952V40.728L38.8763 40.62H40.7123C41.2643 40.62 41.8523 40.62 42.4763 40.62C43.1243 40.596 43.6883 40.548 44.1683 40.476L45.4283 40.296L45.6443 40.98C45.4523 41.244 45.3323 41.616 45.2843 42.096C45.2603 42.552 45.2483 43.02 45.2483 43.5L45.3563 43.572ZM77.5285 47.82L76.6645 48.468C75.3685 48.468 74.0845 48.48 72.8125 48.504C71.5645 48.528 70.2805 48.54 68.9605 48.54H66.0085C65.9845 48.708 65.9725 48.876 65.9725 49.044C65.9725 49.188 65.9725 49.332 65.9725 49.476C65.9725 50.1 66.0805 50.724 66.2965 51.348C66.5125 51.972 66.8485 52.536 67.3045 53.04C67.7845 53.52 68.3845 53.916 69.1045 54.228C69.8245 54.516 70.7005 54.66 71.7325 54.66C72.4765 54.66 73.2565 54.564 74.0725 54.372C74.9125 54.156 75.6925 53.88 76.4125 53.544L77.0245 53.796V55.092L76.6645 55.488C76.0885 55.944 75.2365 56.376 74.1085 56.784C73.0045 57.192 71.8045 57.396 70.5085 57.396C69.2365 57.396 68.0725 57.192 67.0165 56.784C65.9845 56.352 65.0845 55.752 64.3165 54.984C63.5725 54.216 62.9845 53.304 62.5525 52.248C62.1445 51.192 61.9405 50.016 61.9405 48.72C61.9405 47.4 62.1565 46.2 62.5885 45.12C63.0205 44.04 63.6085 43.116 64.3525 42.348C65.1205 41.58 66.0085 40.98 67.0165 40.548C68.0485 40.116 69.1525 39.9 70.3285 39.9C70.9525 39.9 71.6485 39.984 72.4165 40.152C73.2085 40.32 73.9645 40.644 74.6845 41.124C75.4045 41.58 76.0525 42.24 76.6285 43.104C77.2045 43.944 77.6005 45.06 77.8165 46.452L77.5285 47.82ZM70.3645 42.6C69.1885 42.6 68.2405 42.96 67.5205 43.68C66.8245 44.376 66.3805 45.192 66.1885 46.128H67.9885C68.8285 46.128 69.6565 46.116 70.4725 46.092C71.2885 46.044 72.1165 46.02 72.9565 46.02C73.2685 46.02 73.4965 45.936 73.6405 45.768C73.7845 45.576 73.8565 45.384 73.8565 45.192C73.8565 44.472 73.5085 43.86 72.8125 43.356C72.1165 42.852 71.3005 42.6 70.3645 42.6Z" fill="#0E0F0F"/>
<path d="M39.4758 3.28H37.1838V10H35.8038V3.28H33.5118V2.08H39.4758V3.28ZM47.3365 10H45.9565V6.52H42.1645V10H40.7845V2.08H42.1645V5.32H45.9565V2.08H47.3365V10ZM53.2247 6.4H50.8247V8.8H54.2687V10H49.4447V2.08H54.0287V3.28H50.8247V5.2H53.2247V6.4Z" fill="#0E0F0F"/>
</svg>
