<svg width="120" height="120" viewBox="0 0 120 120" fill="none" xmlns="http://www.w3.org/2000/svg">
<rect width="120" height="120" fill="#0E0F0F"/>
<path d="M49.2844 87.48C48.911 87.48 48.3244 87.4533 47.5244 87.4C46.7244 87.3467 45.871 87.2933 44.9644 87.24C44.0577 87.1867 43.2044 87.1333 42.4044 87.08C41.6044 87.0267 41.0177 87 40.6444 87H32.8844C32.511 87 31.9244 87.0267 31.1244 87.08C30.3244 87.1333 29.471 87.1867 28.5644 87.24C27.711 87.2933 26.8844 87.3467 26.0844 87.4C25.2844 87.4533 24.6977 87.48 24.3244 87.48L24.1644 87.16L24.4044 84.12L24.8044 83.8C25.6044 83.8 26.5377 83.7733 27.6044 83.72C28.7244 83.6667 29.5244 83.4267 30.0044 83C30.431 82.6267 30.8577 82.1467 31.2844 81.56C31.711 80.9733 32.0044 79.9333 32.1644 78.44C32.2177 78.0667 32.2444 77.64 32.2444 77.16C32.2977 76.6267 32.3244 75.9867 32.3244 75.24C32.3777 74.4933 32.4044 73.5867 32.4044 72.52C32.4044 71.4533 32.4044 70.12 32.4044 68.52V53.88C32.4044 50.9467 32.3777 48.3333 32.3244 46.04C32.271 43.7467 32.2177 42.04 32.1644 40.92H31.2844C29.2577 40.92 27.5777 40.9467 26.2444 41C24.911 41 23.8444 41.0533 23.0444 41.16C22.2444 41.2133 21.631 41.2933 21.2044 41.4C20.831 41.5067 20.5644 41.64 20.4044 41.8C19.8177 42.0667 19.3377 42.4933 18.9644 43.08C18.591 43.6667 18.351 44.36 18.2444 45.16L17.9244 45.48H14.4844L15.0444 34.76L15.3644 34.04L15.8444 33.8C16.271 33.96 17.2044 34.12 18.6444 34.28C20.0844 34.3867 21.6577 34.4667 23.3644 34.52C25.071 34.5733 26.6977 34.6267 28.2444 34.68C29.8444 34.68 30.991 34.68 31.6844 34.68H41.7644C42.4577 34.68 43.5777 34.68 45.1244 34.68C46.7244 34.6267 48.3777 34.5733 50.0844 34.52C51.791 34.4667 53.3644 34.3867 54.8044 34.28C56.2444 34.12 57.1777 33.96 57.6044 33.8L58.0844 34.04L58.4044 34.76L59.0444 45.48H55.5244L55.2044 45.16C55.0977 44.36 54.8577 43.6667 54.4844 43.08C54.111 42.4933 53.631 42.0667 53.0444 41.8C52.8844 41.5867 52.591 41.4267 52.1644 41.32C51.791 41.16 51.2044 41.0533 50.4044 41C49.6044 40.9467 48.5377 40.92 47.2044 40.92C45.9244 40.92 44.271 40.92 42.2444 40.92H41.3644C41.311 42.2 41.2577 43.9067 41.2044 46.04C41.2044 48.1733 41.2044 50.76 41.2044 53.8V66.92C41.2044 68.84 41.2044 70.4133 41.2044 71.64C41.2044 72.8133 41.2044 73.8 41.2044 74.6C41.2577 75.4 41.2844 76.0933 41.2844 76.68C41.3377 77.2133 41.391 77.8 41.4444 78.44C41.551 79.9867 41.8444 81.0533 42.3244 81.64C42.8044 82.2267 43.2577 82.68 43.6844 83C43.8977 83.2133 44.191 83.3733 44.5644 83.48C44.991 83.5867 45.4444 83.6667 45.9244 83.72C46.4044 83.7733 46.8844 83.8 47.3644 83.8C47.8977 83.8 48.3777 83.8 48.8044 83.8L49.2044 84.12L49.4444 87.16L49.2844 87.48ZM73.4375 43.24C73.3308 42.3333 73.1175 41.4533 72.7975 40.6C72.5308 39.6933 72.1042 39.0267 71.5175 38.6C71.0908 38.3333 70.5575 38.1467 69.9175 38.04C69.2775 37.9333 68.3975 37.88 67.2775 37.88L66.8775 37.56L66.6375 34.52L66.7975 34.2C67.2775 34.2533 67.9175 34.3067 68.7175 34.36C69.5708 34.4133 70.4242 34.4667 71.2775 34.52C72.1842 34.5733 73.0375 34.6267 73.8375 34.68C74.6375 34.68 75.2775 34.68 75.7575 34.68H80.4775C80.9575 34.68 81.5708 34.68 82.3175 34.68C83.1175 34.6267 83.9442 34.5733 84.7975 34.52C85.7042 34.4667 86.5575 34.4133 87.3575 34.36C88.2108 34.3067 88.9042 34.2533 89.4375 34.2L89.5975 34.52L89.3575 37.56L89.0375 37.88C87.7042 37.88 86.7175 37.96 86.0775 38.12C85.4908 38.2267 85.0108 38.4133 84.6375 38.68C83.5175 39.4267 82.8775 40.9467 82.7175 43.24C82.6642 43.7733 82.6108 44.3333 82.5575 44.92C82.5575 45.4533 82.5575 46.1733 82.5575 47.08C82.5575 47.9333 82.5575 49.0267 82.5575 50.36C82.5575 51.6933 82.5575 53.3733 82.5575 55.4V66.12C82.5575 68.2 82.5575 69.9067 82.5575 71.24C82.5575 72.52 82.5575 73.6133 82.5575 74.52C82.6108 75.3733 82.6375 76.1467 82.6375 76.84C82.6908 77.48 82.7708 78.2533 82.8775 79.16C82.9308 80.2267 83.5442 80.76 84.7175 80.76H92.1575C93.9175 80.76 95.3042 80.7333 96.3175 80.68C97.3842 80.5733 98.2108 80.36 98.7975 80.04C99.3842 79.6667 99.8375 79.16 100.158 78.52C100.478 77.88 100.771 77 101.038 75.88L101.278 75.56H104.958L103.518 86.52L102.878 87.32C102.451 87.2667 101.784 87.2133 100.878 87.16C99.9708 87.16 99.0108 87.1333 97.9975 87.08C96.9842 87.08 95.9708 87.0533 94.9575 87C93.9975 87 93.2508 87 92.7175 87H75.7575C75.3842 87 74.7708 87 73.9175 87C73.1175 87.0533 72.2642 87.1067 71.3575 87.16C70.4508 87.2133 69.5708 87.2667 68.7175 87.32C67.8642 87.3733 67.2242 87.4267 66.7975 87.48L66.6375 87.16L66.8775 84.12L67.2775 83.8C69.3042 83.8 70.6908 83.5067 71.4375 82.92C71.8642 82.5467 72.2642 81.96 72.6375 81.16C73.0642 80.36 73.3308 79.4267 73.4375 78.36C73.4908 77.8267 73.5175 77.1067 73.5175 76.2C73.5708 75.24 73.5975 74.2533 73.5975 73.24C73.6508 72.2267 73.6775 71.2933 73.6775 70.44C73.6775 69.5333 73.6775 68.8933 73.6775 68.52V55.48C73.6775 52.5467 73.6508 49.9867 73.5975 47.8C73.5975 45.56 73.5442 44.04 73.4375 43.24Z" fill="white"/>
</svg>
